<mxfile host="app.diagrams.net" modified="2023-05-11T05:44:29.051Z" agent="Mozilla/5.0 (Macintosh; Intel Mac OS X 10_15_7) AppleWebKit/537.36 (KHTML, like Gecko) Chrome/112.0.0.0 Safari/537.36" etag="qrQYYwJKH1nxAGBp3BXg" version="21.2.9" type="github">
  <diagram name="Page-1" id="om6kfkXCuX2hDVb3iTbD">
    <mxGraphModel dx="1259" dy="685" grid="1" gridSize="10" guides="1" tooltips="1" connect="1" arrows="1" fold="1" page="1" pageScale="1" pageWidth="1169" pageHeight="1654" math="0" shadow="0">
      <root>
        <mxCell id="0" />
        <mxCell id="1" parent="0" />
        <mxCell id="eexkDwBA2EC4KnZvLFfI-3" value="" style="html=1;points=[];perimeter=orthogonalPerimeter;outlineConnect=0;targetShapes=umlLifeline;portConstraint=eastwest;newEdgeStyle={&quot;edgeStyle&quot;:&quot;elbowEdgeStyle&quot;,&quot;elbow&quot;:&quot;vertical&quot;,&quot;curved&quot;:0,&quot;rounded&quot;:0};" parent="1" vertex="1">
          <mxGeometry x="480.5" y="160" width="10" height="480" as="geometry" />
        </mxCell>
        <mxCell id="eexkDwBA2EC4KnZvLFfI-4" value="" style="html=1;points=[];perimeter=orthogonalPerimeter;outlineConnect=0;targetShapes=umlLifeline;portConstraint=eastwest;newEdgeStyle={&quot;edgeStyle&quot;:&quot;elbowEdgeStyle&quot;,&quot;elbow&quot;:&quot;vertical&quot;,&quot;curved&quot;:0,&quot;rounded&quot;:0};" parent="1" vertex="1">
          <mxGeometry x="952.5" y="160" width="10" height="480" as="geometry" />
        </mxCell>
        <mxCell id="eexkDwBA2EC4KnZvLFfI-8" value="用户" style="shape=actor;whiteSpace=wrap;html=1;" parent="1" vertex="1">
          <mxGeometry x="80" y="150" width="40" height="60" as="geometry" />
        </mxCell>
        <mxCell id="eexkDwBA2EC4KnZvLFfI-10" value="技术中台" style="shape=ext;double=1;rounded=0;whiteSpace=wrap;html=1;fillColor=#fff2cc;strokeColor=#d6b656;" parent="1" vertex="1">
          <mxGeometry x="438" y="100" width="95" height="30" as="geometry" />
        </mxCell>
        <mxCell id="eexkDwBA2EC4KnZvLFfI-11" value="argo" style="shape=ext;double=1;rounded=0;whiteSpace=wrap;html=1;fillColor=#fff2cc;strokeColor=#d6b656;" parent="1" vertex="1">
          <mxGeometry x="910" y="100" width="95" height="30" as="geometry" />
        </mxCell>
        <mxCell id="eexkDwBA2EC4KnZvLFfI-12" value="" style="html=1;points=[];perimeter=orthogonalPerimeter;outlineConnect=0;targetShapes=umlLifeline;portConstraint=eastwest;newEdgeStyle={&quot;edgeStyle&quot;:&quot;elbowEdgeStyle&quot;,&quot;elbow&quot;:&quot;vertical&quot;,&quot;curved&quot;:0,&quot;rounded&quot;:0};" parent="1" vertex="1">
          <mxGeometry x="262.5" y="160" width="10" height="480" as="geometry" />
        </mxCell>
        <mxCell id="eexkDwBA2EC4KnZvLFfI-13" value="java" style="shape=ext;double=1;rounded=0;whiteSpace=wrap;html=1;fillColor=#fff2cc;strokeColor=#d6b656;" parent="1" vertex="1">
          <mxGeometry x="220" y="100" width="95" height="30" as="geometry" />
        </mxCell>
        <mxCell id="eexkDwBA2EC4KnZvLFfI-15" value="" style="endArrow=none;dashed=1;html=1;dashPattern=1 3;strokeWidth=2;rounded=0;entryX=0.5;entryY=1;entryDx=0;entryDy=0;" parent="1" source="eexkDwBA2EC4KnZvLFfI-3" target="eexkDwBA2EC4KnZvLFfI-10" edge="1">
          <mxGeometry width="50" height="50" relative="1" as="geometry">
            <mxPoint x="298" y="170" as="sourcePoint" />
            <mxPoint x="298" y="140" as="targetPoint" />
          </mxGeometry>
        </mxCell>
        <mxCell id="eexkDwBA2EC4KnZvLFfI-16" value="" style="endArrow=none;dashed=1;html=1;dashPattern=1 3;strokeWidth=2;rounded=0;entryX=0.5;entryY=1;entryDx=0;entryDy=0;" parent="1" source="eexkDwBA2EC4KnZvLFfI-4" target="eexkDwBA2EC4KnZvLFfI-11" edge="1">
          <mxGeometry width="50" height="50" relative="1" as="geometry">
            <mxPoint x="708" y="170" as="sourcePoint" />
            <mxPoint x="708" y="140" as="targetPoint" />
          </mxGeometry>
        </mxCell>
        <mxCell id="eexkDwBA2EC4KnZvLFfI-19" value="" style="endArrow=classic;html=1;rounded=0;exitX=1;exitY=0.75;exitDx=0;exitDy=0;" parent="1" source="eexkDwBA2EC4KnZvLFfI-8" edge="1">
          <mxGeometry width="50" height="50" relative="1" as="geometry">
            <mxPoint x="130" y="200" as="sourcePoint" />
            <mxPoint x="260" y="195" as="targetPoint" />
          </mxGeometry>
        </mxCell>
        <mxCell id="eexkDwBA2EC4KnZvLFfI-20" value="1.创建静态工作流" style="edgeLabel;html=1;align=center;verticalAlign=middle;resizable=0;points=[];" parent="eexkDwBA2EC4KnZvLFfI-19" vertex="1" connectable="0">
          <mxGeometry x="-0.1143" y="1" relative="1" as="geometry">
            <mxPoint as="offset" />
          </mxGeometry>
        </mxCell>
        <mxCell id="eexkDwBA2EC4KnZvLFfI-22" value="" style="endArrow=classic;html=1;rounded=0;" parent="1" source="eexkDwBA2EC4KnZvLFfI-12" target="eexkDwBA2EC4KnZvLFfI-3" edge="1">
          <mxGeometry width="50" height="50" relative="1" as="geometry">
            <mxPoint x="280" y="200" as="sourcePoint" />
            <mxPoint x="320" y="150" as="targetPoint" />
            <Array as="points">
              <mxPoint x="410" y="220" />
            </Array>
          </mxGeometry>
        </mxCell>
        <mxCell id="eexkDwBA2EC4KnZvLFfI-23" value="2.调用保存静态工作流接口" style="edgeLabel;html=1;align=center;verticalAlign=middle;resizable=0;points=[];" parent="eexkDwBA2EC4KnZvLFfI-22" vertex="1" connectable="0">
          <mxGeometry x="0.0337" y="-1" relative="1" as="geometry">
            <mxPoint as="offset" />
          </mxGeometry>
        </mxCell>
        <mxCell id="eexkDwBA2EC4KnZvLFfI-27" value="" style="endArrow=classic;html=1;rounded=0;" parent="1" source="eexkDwBA2EC4KnZvLFfI-3" edge="1" target="eexkDwBA2EC4KnZvLFfI-3">
          <mxGeometry width="50" height="50" relative="1" as="geometry">
            <mxPoint x="500" y="260" as="sourcePoint" />
            <mxPoint x="500" y="300" as="targetPoint" />
            <Array as="points">
              <mxPoint x="550" y="260" />
              <mxPoint x="550" y="300" />
            </Array>
          </mxGeometry>
        </mxCell>
        <mxCell id="eexkDwBA2EC4KnZvLFfI-28" value="4.渲染动态工作流数据" style="edgeLabel;html=1;align=center;verticalAlign=middle;resizable=0;points=[];" parent="eexkDwBA2EC4KnZvLFfI-27" vertex="1" connectable="0">
          <mxGeometry x="-0.0658" y="1" relative="1" as="geometry">
            <mxPoint x="34" y="6" as="offset" />
          </mxGeometry>
        </mxCell>
        <mxCell id="eexkDwBA2EC4KnZvLFfI-30" value="" style="endArrow=classic;html=1;rounded=0;" parent="1" edge="1">
          <mxGeometry width="50" height="50" relative="1" as="geometry">
            <mxPoint x="480" y="350" as="sourcePoint" />
            <mxPoint x="272.5" y="350" as="targetPoint" />
          </mxGeometry>
        </mxCell>
        <mxCell id="eexkDwBA2EC4KnZvLFfI-31" value="6.保存成功，返回节点信息" style="edgeLabel;html=1;align=center;verticalAlign=middle;resizable=0;points=[];" parent="eexkDwBA2EC4KnZvLFfI-30" vertex="1" connectable="0">
          <mxGeometry x="0.1759" y="-1" relative="1" as="geometry">
            <mxPoint x="12" y="1" as="offset" />
          </mxGeometry>
        </mxCell>
        <mxCell id="eexkDwBA2EC4KnZvLFfI-32" value="" style="endArrow=classic;html=1;rounded=0;exitX=1.025;exitY=0.633;exitDx=0;exitDy=0;exitPerimeter=0;" parent="1" source="eexkDwBA2EC4KnZvLFfI-33" edge="1">
          <mxGeometry width="50" height="50" relative="1" as="geometry">
            <mxPoint x="140" y="420" as="sourcePoint" />
            <mxPoint x="260" y="420" as="targetPoint" />
          </mxGeometry>
        </mxCell>
        <mxCell id="eexkDwBA2EC4KnZvLFfI-34" value="1.执行工作流" style="edgeLabel;html=1;align=center;verticalAlign=middle;resizable=0;points=[];" parent="eexkDwBA2EC4KnZvLFfI-32" vertex="1" connectable="0">
          <mxGeometry x="-0.3182" y="2" relative="1" as="geometry">
            <mxPoint as="offset" />
          </mxGeometry>
        </mxCell>
        <mxCell id="eexkDwBA2EC4KnZvLFfI-33" value="用户" style="shape=actor;whiteSpace=wrap;html=1;" parent="1" vertex="1">
          <mxGeometry x="90" y="380" width="40" height="60" as="geometry" />
        </mxCell>
        <mxCell id="eexkDwBA2EC4KnZvLFfI-35" value="" style="endArrow=classic;html=1;rounded=0;entryX=-0.25;entryY=0.583;entryDx=0;entryDy=0;entryPerimeter=0;" parent="1" source="eexkDwBA2EC4KnZvLFfI-12" edge="1" target="eexkDwBA2EC4KnZvLFfI-4">
          <mxGeometry width="50" height="50" relative="1" as="geometry">
            <mxPoint x="512.5" y="440" as="sourcePoint" />
            <mxPoint x="770" y="440" as="targetPoint" />
          </mxGeometry>
        </mxCell>
        <mxCell id="eexkDwBA2EC4KnZvLFfI-36" value="2.提交动态工作流" style="edgeLabel;html=1;align=center;verticalAlign=middle;resizable=0;points=[];" parent="eexkDwBA2EC4KnZvLFfI-35" vertex="1" connectable="0">
          <mxGeometry x="-0.2762" y="1" relative="1" as="geometry">
            <mxPoint x="83" y="1" as="offset" />
          </mxGeometry>
        </mxCell>
        <mxCell id="eexkDwBA2EC4KnZvLFfI-38" value="" style="endArrow=classic;html=1;rounded=0;" parent="1" target="eexkDwBA2EC4KnZvLFfI-12" edge="1">
          <mxGeometry width="50" height="50" relative="1" as="geometry">
            <mxPoint x="770" y="500" as="sourcePoint" />
            <mxPoint x="770" y="450" as="targetPoint" />
            <Array as="points">
              <mxPoint x="950" y="500" />
            </Array>
          </mxGeometry>
        </mxCell>
        <mxCell id="eexkDwBA2EC4KnZvLFfI-39" value="3.返回动态工作流信息" style="edgeLabel;html=1;align=center;verticalAlign=middle;resizable=0;points=[];" parent="eexkDwBA2EC4KnZvLFfI-38" vertex="1" connectable="0">
          <mxGeometry x="0.1155" y="-2" relative="1" as="geometry">
            <mxPoint x="-52" as="offset" />
          </mxGeometry>
        </mxCell>
        <mxCell id="eexkDwBA2EC4KnZvLFfI-41" value="4.控制审批节点" style="endArrow=classic;html=1;rounded=0;" parent="1" edge="1">
          <mxGeometry width="50" height="50" relative="1" as="geometry">
            <mxPoint x="260" y="520" as="sourcePoint" />
            <mxPoint x="260" y="570" as="targetPoint" />
            <Array as="points">
              <mxPoint x="190" y="520" />
              <mxPoint x="190" y="570" />
            </Array>
          </mxGeometry>
        </mxCell>
        <mxCell id="eexkDwBA2EC4KnZvLFfI-42" value="" style="endArrow=classic;html=1;rounded=0;" parent="1" edge="1" target="eexkDwBA2EC4KnZvLFfI-4">
          <mxGeometry width="50" height="50" relative="1" as="geometry">
            <mxPoint x="270" y="610" as="sourcePoint" />
            <mxPoint x="770" y="610" as="targetPoint" />
          </mxGeometry>
        </mxCell>
        <mxCell id="eexkDwBA2EC4KnZvLFfI-43" value="5.恢复执行" style="edgeLabel;html=1;align=center;verticalAlign=middle;resizable=0;points=[];" parent="eexkDwBA2EC4KnZvLFfI-42" vertex="1" connectable="0">
          <mxGeometry x="-0.1289" relative="1" as="geometry">
            <mxPoint x="13" as="offset" />
          </mxGeometry>
        </mxCell>
        <mxCell id="2pdmpfuJMXASrN3ecBPk-1" value="" style="endArrow=none;dashed=1;html=1;dashPattern=1 3;strokeWidth=2;rounded=0;" parent="1" source="eexkDwBA2EC4KnZvLFfI-12" edge="1">
          <mxGeometry width="50" height="50" relative="1" as="geometry">
            <mxPoint x="220" y="180" as="sourcePoint" />
            <mxPoint x="270" y="130" as="targetPoint" />
          </mxGeometry>
        </mxCell>
        <mxCell id="77jAs8KEpDss36G1PGta-37" value="" style="html=1;points=[];perimeter=orthogonalPerimeter;outlineConnect=0;targetShapes=umlLifeline;portConstraint=eastwest;newEdgeStyle={&quot;edgeStyle&quot;:&quot;elbowEdgeStyle&quot;,&quot;elbow&quot;:&quot;vertical&quot;,&quot;curved&quot;:0,&quot;rounded&quot;:0};" vertex="1" parent="1">
          <mxGeometry x="722.5" y="150" width="10" height="480" as="geometry" />
        </mxCell>
        <mxCell id="77jAs8KEpDss36G1PGta-38" value="技术中台数据库" style="shape=ext;double=1;rounded=0;whiteSpace=wrap;html=1;fillColor=#fff2cc;strokeColor=#d6b656;" vertex="1" parent="1">
          <mxGeometry x="680" y="100" width="95" height="30" as="geometry" />
        </mxCell>
        <mxCell id="77jAs8KEpDss36G1PGta-39" value="" style="endArrow=none;dashed=1;html=1;dashPattern=1 3;strokeWidth=2;rounded=0;entryX=0.5;entryY=1;entryDx=0;entryDy=0;" edge="1" parent="1" source="77jAs8KEpDss36G1PGta-37" target="77jAs8KEpDss36G1PGta-38">
          <mxGeometry width="50" height="50" relative="1" as="geometry">
            <mxPoint x="478" y="160" as="sourcePoint" />
            <mxPoint x="478" y="130" as="targetPoint" />
          </mxGeometry>
        </mxCell>
        <mxCell id="77jAs8KEpDss36G1PGta-40" value="" style="endArrow=classic;html=1;rounded=0;" edge="1" parent="1">
          <mxGeometry width="50" height="50" relative="1" as="geometry">
            <mxPoint x="490.5" y="340" as="sourcePoint" />
            <mxPoint x="720.5" y="340" as="targetPoint" />
          </mxGeometry>
        </mxCell>
        <mxCell id="77jAs8KEpDss36G1PGta-41" value="5.保存到数据库" style="edgeLabel;html=1;align=center;verticalAlign=middle;resizable=0;points=[];" vertex="1" connectable="0" parent="77jAs8KEpDss36G1PGta-40">
          <mxGeometry x="-0.0201" y="-2" relative="1" as="geometry">
            <mxPoint x="-3" y="-2" as="offset" />
          </mxGeometry>
        </mxCell>
        <mxCell id="77jAs8KEpDss36G1PGta-42" value="注：该时序图仅表示创建工作流和执行工作流成功的情况" style="whiteSpace=wrap;html=1;aspect=fixed;" vertex="1" parent="1">
          <mxGeometry x="1050" y="210" width="80" height="80" as="geometry" />
        </mxCell>
        <mxCell id="77jAs8KEpDss36G1PGta-43" value="" style="endArrow=classic;html=1;rounded=0;" edge="1" parent="1" source="eexkDwBA2EC4KnZvLFfI-3">
          <mxGeometry width="50" height="50" relative="1" as="geometry">
            <mxPoint x="500" y="220" as="sourcePoint" />
            <mxPoint x="720" y="230" as="targetPoint" />
          </mxGeometry>
        </mxCell>
        <mxCell id="77jAs8KEpDss36G1PGta-44" value="3.查询构建、服务表&lt;br&gt;获取构建信息信息" style="edgeLabel;html=1;align=center;verticalAlign=middle;resizable=0;points=[];" vertex="1" connectable="0" parent="77jAs8KEpDss36G1PGta-43">
          <mxGeometry x="-0.1358" y="1" relative="1" as="geometry">
            <mxPoint as="offset" />
          </mxGeometry>
        </mxCell>
      </root>
    </mxGraphModel>
  </diagram>
</mxfile>
